# xmcd
#
# Track frame offsets:
#	150
#	16028
#	34813
#	52199
#	72538
#	89215
#	112085
#	130794
#	147277
#	164375
#	182610
#	201164
#	219301
#	221899
#	241862
#	262391
#	285702
#	307912
#
# Disc length: 4396 seconds
#
# Revision: 1
# Processed by: cddbd v1.4PL0 Copyright (c) Steve Scherf et al.
# Submitted via: audiograbber 1.80
#
DISCID=1e112a12
DTITLE=Plattenpapzt - FullHouse
DYEAR=1900
DGENRE=
TTITLE0=Bis Dein Arsch Brennt (feat. Creutzfeld and Jakob)
TTITLE1=Boogie Nights (feat. Too Strong)
TTITLE2=Das Beste (feat. Ferris MC and DJ Stylewarez)
TTITLE3=Dicks (feat. Brixx) 
TTITLE4=Egoist (feat. Schivv)
TTITLE5=Feel It (feat. Gentleman and MC Rene)
TTITLE6=Flashbacks (feat. Fanatics)
TTITLE7=Für Die Straßen (feat. Die Firma)
TTITLE8=Ja, Ja - Is' Klar (feat. Smudo vs. Thomas D)
TTITLE9=Kaiserschnitt (feat. MC Spontan)
TTITLE10=King Of Rap (feat. Kool Savas)
TTITLE11=Sadistending (feat. Spezializtz)
TTITLE12=Schwarzes Plastik
TTITLE13=The Soul (feat. Afrob and Wasi)
TTITLE14=Verständnis (feat. Curse)
TTITLE15=Warnung (feat. Illmatic and J-Luv)
TTITLE16=Wenn Zonis Reisen... (feat. Tefla and Jaleel)
TTITLE17=Wer Zum Fick (feat. Rotz and Lenny)
EXTD=
EXTT0=
EXTT1=
EXTT2=
EXTT3=
EXTT4=
EXTT5=
EXTT6=
EXTT7=
EXTT8=
EXTT9=
EXTT10=
EXTT11=
EXTT12=
EXTT13=
EXTT14=
EXTT15=
EXTT16=
EXTT17=
PLAYORDER=
